PathFileType	4	(X/Y/Z)	..\data\2014051\dynamic\2014051_C4_04.trc
DataRate	CameraRate	NumFrames	NumMarkers	Units	OrigDataRate	OrigDataStartFrame	OrigNumFrames
100.000000	100.000000	4	44	mm	100.000000	124	199
Frame#	Time	L_IAS			L_IPS			R_IPS			R_IAS			L_FTC			L_FLE			L_FME			L_FAX			L_TTC			L_FAL			L_TAM			L_FCC			L_FM1			L_FM2			L_FM5			R_FTC			R_FLE			R_FME			R_FAX			R_TTC			R_FAL			R_TAM			R_FCC			R_FM1			R_FM2			R_FM5			CV7			TV10			SXS			SJN			L_SAE			L_HLE			L_HME			L_RSP			L_UHE			L_HM2			L_HM5			R_SAE			R_HLE			R_HME			R_RSP			R_UHE			R_HM2			R_HM5			
		X1	Y1	Z1	X2	Y2	Z2	X3	Y3	Z3	X4	Y4	Z4	X5	Y5	Z5	X6	Y6	Z6	X7	Y7	Z7	X8	Y8	Z8	X9	Y9	Z9	X10	Y10	Z10	X11	Y11	Z11	X12	Y12	Z12	X13	Y13	Z13	X14	Y14	Z14	X15	Y15	Z15	X16	Y16	Z16	X17	Y17	Z17	X18	Y18	Z18	X19	Y19	Z19	X20	Y20	Z20	X21	Y21	Z21	X22	Y22	Z22	X23	Y23	Z23	X24	Y24	Z24	X25	Y25	Z25	X26	Y26	Z26	X27	Y27	Z27	X28	Y28	Z28	X29	Y29	Z29	X30	Y30	Z30	X31	Y31	Z31	X32	Y32	Z32	X33	Y33	Z33	X34	Y34	Z34	X35	Y35	Z35	X36	Y36	Z36	X37	Y37	Z37	X38	Y38	Z38	X39	Y39	Z39	X40	Y40	Z40	X41	Y41	Z41	X42	Y42	Z42	X43	Y43	Z43	X44	Y44	Z44	

125	1.24	66.37937927246094	1067.750854492188	127.7875518798829	-137.5378417968751	1086.752197265625	243.4617156982422	-132.5863952636719	1085.400268554688	311.1071472167969	75.13475799560544	1079.242797851563	398.4834899902345	-19.27441215515138	952.5083007812502	76.37232971191408	-135.6560974121094	538.6527709960939	144.9710235595703	-123.9089584350587	548.3666381835939	273.5958251953126	-174.9411315917969	475.191131591797	145.930419921875	-123.1387557983399	446.9530334472657	205.5426483154297	-313.7583618164063	85.69403076171876	209.6966400146485	-284.1915588378907	105.4488525390625	302.1410827636719	-366.915740966797	50.77009582519533	269.0523986816406	-150.5714416503907	23.9619369506836	281.3315734863282	-150.5452270507813	35.26597213745118	219.9127655029297	-199.5151367187501	22.82054710388184	176.3869934082031	13.13624382019038	952.005310058594	464.5491027832032	154.5643005371093	541.4621582031251	403.1993713378907	159.1098785400391	547.2011108398439	271.8455200195313	148.983154296875	472.2460021972657	407.6133422851564	222.9353332519532	483.5123901367189	344.2679138183594	298.9225463867188	76.2483596801758	370.6344604492189	332.1769714355469	119.6959304809571	287.1454467773439	282.3385925292969	21.37235260009766	301.3413391113282	483.1046142578126	116.8437728881836	310.4718017578126	464.6645202636719	117.6880416870117	364.559539794922	434.5743103027344	82.90193939208986	402.7225036621095	-94.21775054931645	1610.177734375	263.7191162109376	-130.8509216308594	1249.10498046875	263.7045288085938	85.44633483886717	1335.49853515625	259.9276733398438	35.81841659545896	1512.335083007813	259.3219299316407	-3.665497303009043	1546.401245117188	75.94261169433595	0.7789137363433876	1164.41796875	-29.33499908447266	-35.70329666137697	1145.090942382813	49.79443740844727	177.1505889892578	946.6901855468752	49.29889297485355	141.9331359863282	926.3515625000002	-23.73898124694823	241.0636138916016	851.4792480468752	57.9041023254395	161.8407592773438	832.6269531250002	-20.28400230407713	-4.054274559021054	1514.446166992188	462.0026855468751	-60.82196044921883	1151.240600585938	549.4273071289064	-97.33908081054696	1131.220092773438	458.2315063476564	60.9913063049316	893.921569824219	488.6108703613282	12.49674415588373	878.1347656250002	554.4588623046876	113.9933242797851	788.384216308594	500.4935913085939	8.25529575347894	779.4447021484377	541.6049804687501	
126	1.25	77.37718963623047	1066.43505859375	127.9930801391602	-126.1699447631837	1085.404418945313	244.8208312988282	-120.985824584961	1083.880981445313	312.3782348632813	87.04826354980466	1077.533203125	399.0046386718751	-9.207112312316905	951.6901855468752	76.71630859375001	-128.4066467285157	538.5026855468751	144.7394561767578	-115.1825332641602	547.5697631835939	273.2167968750001	-168.1511993408204	475.3220520019532	145.7154998779297	-116.4585418701172	446.2966613769532	204.9991302490235	-312.8023376464844	87.73677062988283	208.8545837402344	-283.0420227050782	107.2534713745117	301.3144226074219	-366.5703125000001	53.66284942626955	268.1154174804688	-150.5362396240235	24.2567481994629	281.1395874023438	-150.3866119384766	35.3598861694336	219.757308959961	-199.2566375732423	22.86118698120118	176.2269287109375	24.65362930297847	950.1780395507815	464.931610107422	165.2084045410156	539.5958862304689	402.5159606933595	170.41162109375	546.1008300781251	271.1331176757813	159.5631561279297	470.0979614257814	406.5711059570314	233.7281646728516	482.1582031250001	343.6355590820314	311.5053405761719	75.05450439453126	368.5677795410157	345.1682739257812	119.1437454223633	285.4620361328126	295.7179565429688	20.49959945678711	298.8743896484376	496.1234436035157	117.026237487793	310.2156372070314	477.1271667480469	117.5805435180664	364.0851440429689	446.7957153320313	82.48662567138673	401.7935180664064	-83.14305114746098	1608.65283203125	264.8089599609376	-119.5243453979493	1247.54541015625	265.0296325683594	96.68669891357422	1334.048706054688	260.5906066894532	46.9306945800781	1510.850341796875	260.1679992675782	6.993372917175285	1544.894165039063	76.89161682128908	11.95064544677735	1162.832275390625	-28.10902976989747	-24.19699859619142	1143.417724609375	51.2445526123047	189.3706817626953	945.9322509765627	50.53258895874027	153.821044921875	925.212097167969	-22.39377975463866	253.6842956542969	850.9751586914065	59.19440460205082	174.2867736816407	831.6923828125002	-18.81551742553709	7.460674285888617	1512.885986328125	462.9691772460939	-49.60909652709969	1149.600952148438	550.1107788085939	-86.35756683349616	1129.739013671875	458.9756164550782	71.34846496582027	891.9647216796877	489.0051879882814	22.92992591857904	876.3182373046877	554.9481811523439	124.0609512329101	786.2620239257815	500.6923828125001	18.37217712402337	777.6592407226565	542.1234130859376	
127	1.26	88.6195068359375	1065.178344726563	128.268539428711	-114.5970306396485	1084.098999023438	246.1949157714844	-109.1880264282227	1082.413818359375	313.6517333984376	99.11061859130858	1075.964965820313	399.6044311523439	1.137559652328482	950.9333496093752	77.12020111083986	-120.8279571533204	538.4113159179689	144.4432983398438	-106.2167434692383	546.8074340820314	272.8154296875001	-161.1291656494141	475.5299682617189	145.4568786621094	-109.5300369262696	445.6877441406251	204.3864898681641	-311.7729797363282	90.00500488281251	207.8360290527344	-281.8286437988282	109.264877319336	300.2898864746094	-366.1929626464845	56.84187698364259	266.9809875488281	-150.441146850586	24.58666801452637	280.9032287597657	-150.1570892333985	35.46554565429688	219.546371459961	-198.9499511718751	22.83890151977539	176.0301208496094	36.53224945068354	948.5406494140627	465.3872070312501	176.3922729492187	537.9634399414064	401.8836059570314	182.0800018310547	545.1191406250001	270.5102844238282	170.464599609375	468.1740722656251	405.662811279297	244.6510772705078	480.7183532714845	343.0019836425782	322.0849304199219	73.43505096435548	366.6192626953126	356.1396179199219	117.7900466918946	283.7208557128907	306.4764404296875	19.31222534179688	296.6779174804689	507.1308593750001	115.386215209961	309.5680236816407	487.6879882812501	115.8499908447266	363.261688232422	456.9902343750001	80.76866912841798	400.6117248535158	-71.97426605224614	1607.197631835938	265.9536132812501	-108.027198791504	1246.03515625	266.3536987304688	108.0673599243164	1332.690307617188	261.3300170898438	58.14540100097655	1509.438842773438	261.0729980468751	17.73290061950683	1543.439697265625	77.88926696777345	23.02955627441407	1161.290893554688	-26.83671951293946	-12.7806625366211	1141.813598632813	52.7312355041504	201.3827362060547	945.1024169921877	51.75026321411136	165.5057983398438	924.0446777343752	-21.06398200988768	266.0241394042969	850.3630981445315	60.43774414062505	186.4424133300782	830.6947021484377	-17.3800525665283	19.10845565795893	1511.409057617188	463.9949951171876	-38.17214202880866	1148.0556640625	550.8902587890626	-75.25727844238288	1128.348022460938	459.8155517578126	81.85694885253902	890.0977172851565	489.4454345703126	33.54338073730462	874.5881347656252	555.5067749023439	134.3023986816406	784.2415161132815	500.9077148437501	28.68072509765619	775.961364746094	542.7191162109376	
128	1.27	100.1197052001953	1063.990234375	128.6127166748047	-102.8051300048829	1082.848022460938	247.5718688964844	-97.17831420898445	1081.025634765625	314.9224243164063	111.3449325561523	1074.560913085938	400.2686767578126	11.77295112609863	950.235290527344	77.58240509033205	-112.8739624023438	538.3771362304689	144.0864410400391	-96.97313690185553	546.0842895507814	272.4023742675782	-153.8452148437501	475.8236389160157	145.1635894775391	-102.3046569824219	445.1222229003907	203.6990661621094	-310.6592407226563	92.52839660644533	206.6749420166016	-280.5074157714845	111.494125366211	299.0883483886719	-365.7474975585939	60.34529113769533	265.70751953125	-150.2792663574219	24.92764282226563	280.6324768066407	-149.8602294921876	35.56782913208009	219.2766571044922	-198.6253051757813	22.74789047241211	175.81640625	48.79055786132808	947.1301879882815	465.9151611328126	188.0423736572265	536.5700073242189	401.3251342773439	194.0024566650391	544.2300415039064	269.9984741210938	181.6500244140625	466.495819091797	404.9184875488282	255.67431640625	479.2302246093751	342.3768615722657	330.8938598632812	71.46331787109376	364.840301513672	365.3160095214844	115.7024078369141	281.9702148437501	314.8412780761719	17.89816856384278	294.7929687500001	516.3585815429689	111.991195678711	308.5606079101564	496.5875549316407	112.5581817626953	362.1256408691407	465.3970031738282	77.81656646728517	399.220672607422	-60.7094116210938	1605.833862304688	267.1528015136719	-96.35105895996099	1244.59228515625	267.6655273437501	119.5931167602539	1331.4453125	262.1494750976563	69.46789550781249	1508.123168945313	262.0427246093751	28.5650634765625	1542.050537109375	78.93640899658205	34.01826095581055	1159.805786132813	-25.52487945556641	-1.459748148918159	1140.2880859375	54.24275207519533	213.1786346435547	944.2053833007815	52.95014953613286	176.9931335449219	922.860046386719	-19.75319671630858	278.0801696777344	849.6520996093752	61.63162231445317	198.3058776855469	829.640319824219	-15.97994041442869	30.88681983947749	1510.028564453125	465.0822753906251	-26.516248703003	1146.612060546875	551.7639770507814	-64.03675842285163	1127.059204101563	460.7463378906251	92.52013397216793	888.3316650390627	489.9322814941407	44.33715820312494	872.954284667969	556.1343994140626	144.7160339355468	782.3332519531252	501.1468505859376	39.17993545532221	774.360046386719	543.3883056640626	
